<svg xmlns="http://www.w3.org/2000/svg" version="1.1" xmlns:xlink="http://www.w3.org/1999/xlink" xmlns:svgjs="http://svgjs.dev/svgjs" width="2000" height="1191" viewBox="0 0 2000 1191"><g transform="matrix(1,0,0,1,-1.2112696095522324,1.0505071775471606)"><svg viewBox="0 0 396 236" data-background-color="#ffffff" preserveAspectRatio="xMidYMid meet" height="1191" width="2000" xmlns="http://www.w3.org/2000/svg" xmlns:xlink="http://www.w3.org/1999/xlink"><g id="tight-bounds" transform="matrix(1,0,0,1,0.24008861730862918,-0.2079896358669231)"><svg viewBox="0 0 395.52 236.41586472759607" height="236.41586472759607" width="395.52"><g><svg viewBox="0 0 395.52 236.41586472759607" height="236.41586472759607" width="395.52"><g><svg viewBox="0 0 395.52 236.41586472759607" height="236.41586472759607" width="395.52"><g id="textblocktransform"><svg viewBox="0 0 395.52 236.41586472759607" height="236.41586472759607" width="395.52" id="textblock"><g><svg viewBox="0 0 395.52 236.41586472759607" height="236.41586472759607" width="395.52"><path d="M394.594 50.707C392.735 26.167 387.435 19.345 387.435 19.345 371.165-5.931 350.86-0.484 332.619 3.148 300.414 3.296 268.339 8.694 236.208 11.59 168.767 12.032 100.749 4.768 33.643 22.682 27.339 28.179-6.54 23.762 1.121 53.848 3.129 66.363 10.456 80.253 10.232 91.737 11.236 93.75 12.631 89.136 13.226 92.032 15.309 99.836 18.711 96.155 21.501 100.768 17.614 113.087 20.403 123.345 23.062 134.093 18.377 136.891 12.371 135.566 9.675 144.842 9.396 151.566 7.89 150.29 6.235 149.995 5.026 149.799 2.59 150.535 2.999 152.645 4.394 159.86-1.594 164.032 2.162 171.099-0.422 178.756 3.948 185.382 3.353 193.676 3.278 195.345 3.687 196.768 4.338 197.161 7.22 199.271 3.018 203.394 3.464 207.86 33.029 238.388 65.104 217.283 95.394 231.32 103.259 221.504 97.346 234.805 100.489 232.744 102.943 230.339 104.728 240.302 107.499 234.658 107.927 233.038 107.276 229.21 108.8 229.946 109.6 230.339 110.307 230.24 110.418 227.983 110.586 224.596 109.117 226.707 108.726 224.94 112.947 216.007 111.906 237.259 115.866 236.375 115.68 233.774 114.528 230.044 116.889 230.535 119.232 226.805 119.306 223.713 121.389 232.106 121.463 233.921 121.835 235.198 122.43 236.081 128.938 226.952 135.409 239.32 142.233 235.198 146.417 230.682 150.433 237.652 154.672 235.934 156.16 234.559 157.666 232.106 159.098 236.228 176.632 237.112 195.319 233.431 211.943 236.375 256.364 230.879 303.835 238.633 350.674 231.369 361.719 228.572 373.192 224.596 383.958 221.406 383.958 221.406 392.679 212.67 392.679 173.406S394.538 139.05 394.817 107.786C395.096 76.523 396.398 75.247 394.538 50.707Z" opacity="1" fill="#374151" data-fill-palette-color="tertiary"></path><g transform="matrix(1,0,0,1,55.76832,26.230666666666668)"><svg width="283.98335999999995" viewBox="0.4000000059604645 -29.5 74.94999694824219 48.54999923706055" height="183.95453139426274" data-palette-color="#ffbe79"><path d="M9.8-20.4L9.8-20.4Q9.8-19.6 10.23-19 10.65-18.4 11-18.15L11-18.15Q11.7-17.7 12.8-17.15L12.8-17.15Q13.4-16.7 13.05-16.6L13.05-16.6Q12.9-16.6 12.7-16.65L12.7-16.65Q11.5-16.9 10.15-18.1 8.8-19.3 8.75-20.85L8.75-20.85Q8.6-21.4 8.6-21.8L8.6-21.8Q8.6-23.95 10.4-25.55L10.4-25.55Q13.75-28.4 21.05-28.4L21.05-28.4Q21.05-28.6 21.2-28.9L21.2-28.9Q21.3-29.5 22.75-29.5L22.75-29.5Q24-29.5 23.95-28.9L23.95-28.9Q23.75-28.5 23.7-28.25L23.7-28.25Q26.9-28.05 29.05-26.95L29.05-26.95Q29.75-26.6 30.08-26.1 30.4-25.6 30.4-25.4L30.4-25.4Q30.4-24.95 28.58-25.58 26.75-26.2 23-26.2L23-26.2Q22.75-25.15 21.28-20.9 19.8-16.65 19.4-15.63 19-14.6 18.3-12.78 17.6-10.95 17.05-9.8 16.5-8.65 15.8-7.2L15.8-7.2Q14.6-4.75 12.95-2.6L12.95-2.6Q11.7-1.15 11.05-0.65L11.05-0.65Q11.9-0.65 14.35-0.65 16.8-0.65 18.65-0.78 20.5-0.9 20.68-0.75 20.85-0.6 20.7-0.4L20.7-0.4Q20.4 0.1 19.9 0.38 19.4 0.65 12.55 0.85 5.7 1.05 4 1.05 2.3 1.05 1.55 1.05L1.55 1.05Q0.4 1 0.4 0.15L0.4 0.15Q0.4-0.3 0.7-1.1L0.7-1.1Q1.05-1.9 2.08-2.13 3.1-2.35 3.9-1.7L3.9-1.7Q5.25-0.6 6.55-0.6 7.85-0.6 9.22-1.1 10.6-1.6 12-3.4L12-3.4Q16.05-8.8 20.5-26.15L20.5-26.15Q15.9-25.75 12.85-24.28 9.8-22.8 9.8-20.4ZM30.05-13L30.05-13Q30.05-12.65 29.5-11.48 28.95-10.3 26.35-3.4L26.35-3.4Q28.15-5.6 30.9-8.5L30.9-8.5Q36.45-14.3 38.55-14.3L38.55-14.3Q39-14.3 39.42-14.05 39.85-13.8 39.85-12.93 39.85-12.05 39.3-10.98 38.75-9.9 38.05-8.35 37.35-6.8 37.1-6.4L37.1-6.4Q41.3-10.2 43.45-11.03 45.6-11.85 46.3-11.85 47-11.85 47-11.35L47-11.35Q47-11.05 46.25-9.9 45.5-8.75 44.6-6.5 43.7-4.25 43.6-3.35 43.5-2.45 43.5-1.75 43.5-1.05 43.9-0.6L43.9-0.6Q44.65 0.2 45.95-0.5 47.25-1.2 49.57-3.3 51.9-5.4 53.3-7.4L53.3-7.4Q53.5-7.65 53.77-7.53 54.05-7.4 54.05-7.28 54.05-7.15 53.95-7L53.95-7Q53.2-5.65 51.25-3.55L51.25-3.55Q48.05-0.1 45.9 0.7L45.9 0.7Q43.55 1.5 42.5 0.9 41.45 0.3 41.2-0.45 40.95-1.2 40.95-1.95L40.95-1.95Q40.95-4.3 41.87-6.65 42.8-9 43.35-9.85L43.35-9.85Q41.45-9.05 40.1-7.85L40.1-7.85Q38.05-6.05 36.8-4.7L36.8-4.7 35.8-3.6Q35.35-2.5 34.22-2.35 33.1-2.2 33.15-3.1L33.15-3.1Q33.25-4.05 35-7.35 36.75-10.65 36.75-11.03 36.75-11.4 36.35-11.4L36.35-11.4Q35.45-11.4 33.1-9.35L33.1-9.35Q31.55-7.9 28.52-3.88 25.5 0.15 25.1 0.4L25.1 0.4Q23.3 1.3 22.85 1.3 22.4 1.3 22.4 1.15 22.4 1 22.55 0.7 22.7 0.4 25.6-8L25.6-8Q24.5-6.3 23.6-5.4L23.6-5.4Q23.2-4.95 23.2-5.58 23.2-6.2 23.55-6.65L23.55-6.65Q25.8-9.6 26.85-11.65L26.85-11.65Q27.15-13.4 28.05-13.7L28.05-13.7Q28.6-13.9 29.32-13.7 30.05-13.5 30.05-13ZM51.35 19.05L51.35 19.05Q50.95 19.05 50.35 18.9L50.35 18.9Q47.8 18.25 47.8 16.23 47.8 14.2 50.42 11.15 53.05 8.1 61.5 2.5L61.5 2.5Q65.1-4.85 66.5-9.15L66.5-9.15Q63.7-5.75 62.5-4.45L62.5-4.45Q58 0.55 55.25 0.55L55.25 0.55Q54.45 0.55 53.52 0.08 52.6-0.4 51.95-1.28 51.3-2.15 51.3-3.15L51.3-3.15Q51.3-5.8 55-9.1L55-9.1Q57.2-11.1 59.6-12.5 62-13.9 63.4-14.25 64.8-14.6 66.1-14.6 67.4-14.6 68.4-13.9 69.4-13.2 69.4-12.5L69.4-12.5Q69.4-12.1 69-12.25L69-12.25Q68.45-13.2 66.57-13.2 64.7-13.2 62.32-11.98 59.95-10.75 58.05-9.08 56.15-7.4 54.82-5.28 53.5-3.15 53.5-2.15L53.5-2.15Q53.5-0.4 54.5-0.4L54.5-0.4Q55.9-0.4 58.8-2.7L58.8-2.7Q63.1-6.05 67.05-10.85L67.05-10.85Q67.7-11.8 69.75-10.8L69.75-10.8Q70.55-10.4 70.4-10.1L70.4-10.1Q69.75-8.65 68.02-5.08 66.3-1.5 65.45 0.3L65.45 0.3Q66.6-0.3 69.37-2.73 72.15-5.15 74.25-7.6L74.25-7.6Q75.35-8.9 75.35-8L75.35-8Q75.35-6.75 69.35-1.4L69.35-1.4Q65.9 1.7 64.45 2.5L64.45 2.5Q60.2 11.25 58.75 13.5L58.75 13.5Q55 19.05 51.35 19.05ZM60.55 4.4L60.55 4.4Q54.55 8.9 51.95 11.53 49.35 14.15 49.35 16.45L49.35 16.45Q49.35 17.15 49.8 17.45 50.25 17.75 50.75 17.75 51.25 17.75 52.2 17 53.15 16.25 53.82 15.53 54.5 14.8 55 14.18 55.5 13.55 56.12 12.58 56.75 11.6 57.1 11.05 57.45 10.5 58.07 9.33 58.7 8.15 58.92 7.73 59.15 7.3 59.77 6 60.4 4.7 60.55 4.4Z" opacity="1" transform="matrix(1,0,0,1,0,0)" fill="#ffbe79" class="wordmark-text-0" data-fill-palette-color="quaternary" id="text-0"></path></svg></g></svg></g></svg></g></svg></g><g></g></svg></g><defs></defs></svg><rect width="395.52" height="236.41586472759607" fill="none" stroke="none" visibility="hidden"></rect></g></svg></g></svg>